<svg xmlns="http://www.w3.org/2000/svg" viewBox="0 0 214 123.36"><defs><style>.cls-1{fill:#e7e9f4;}.cls-2{fill:none;}</style></defs><g id="Capa_2" data-name="Capa 2"><g id="Capa_1-2" data-name="Capa 1"><path id="path4664" class="cls-1" d="M4.41,70.93c2.52-9.21,13-11.41,22.67-11.68a134.9,134.9,0,0,1,16.79.83L39.71,75.29a134.9,134.9,0,0,0-16.79-.83C13.26,74.73,2.76,76.93.25,86.14Z"/><path id="path4655" class="cls-1" d="M138.08,54.73c-12.72,0-16,12.31-17.8,19L106.7,123.36h7.92l12-44h8.23l-5.48,20h7.93l6.57-24H127.76l2.43-8.89c1.33-4.85,3.5-8.38,6.66-8.26,3.49.13,1.71,2.42,1.23,4.17-.66,2.41,1.13,4.84,4.25,4.84C149.12,67.2,150.8,54.73,138.08,54.73Zm-45,8.69h0l-9.83,36h8.26l3.64-13.31h7.18c7.92,0,13.18-4.37,14.6-10.45,1.32-5.67-2-12.19-10.86-12.19Zm7.11,4.23h3.18c3.32,0,6,2.66,5.32,7.3-.59,4.29-5.25,6.87-9.32,6.87H96.35Zm78.35,7c-7,0-12,6-13.16,12-1.16,5.74,2.14,13.37,11.2,13.37,6.44,0,9.68-2.84,9.68-2.84l-1.49-3.66a11.15,11.15,0,0,1-6.48,2.21c-3.77,0-6.14-3-5.61-7.73h15.41C189.23,85.12,189.83,74.61,178.58,74.61Zm30.71.33c-5.17,0-8.21,5.33-8.21,5.33l1.35-4.93H194.5l-6.57,24h7.92s1.91-7,2.88-10.53c1.5-5.48,4.56-8.91,6-9,1.7-.16,1.54,3.94,4.85,3.94,5,0,6.11-8.79-.32-8.79Zm-62.39.4-1.09,4h10.05l-15.8,20h22.31l1.09-4H152.13l15.79-20Zm31.65,3.24h0c4.31,0,3.33,5.69,3.33,5.69l-8.63,0s1.43-5.67,5.3-5.67Z"/><path id="path4668" class="cls-1" d="M64.69,99.42C36.27,97.65,3.24,83,4.41,70.93L.48,85.26C-.7,97.57,29.93,112.19,60.53,114.64Z"/><path id="path4672" class="cls-1" d="M75,79.66c-2.52,9.21-13,11.4-22.67,11.67a135.14,135.14,0,0,1-16.8-.83l4.16-15.21a135.14,135.14,0,0,0,16.8.83c9.66-.27,20.15-2.46,22.67-11.68Z"/><path id="path4674" class="cls-1" d="M14.73,51.16C43.16,52.93,76.19,67.59,75,79.66l3.92-14.34C80.13,53,49.49,38.39,18.9,36Z"/><rect class="cls-2" width="214" height="123.36"/></g></g></svg>