<svg xmlns="http://www.w3.org/2000/svg" viewBox="0 0 224.39 123.36"><defs><style>.cls-1{stroke:#d5daea;stroke-linecap:round;stroke-miterlimit:2.44;stroke-width:2.8px;}.cls-2{fill:#d8dceb;}.cls-3{fill:none;}</style></defs><g id="Capa_2" data-name="Capa 2"><g id="Capa_1-2" data-name="Capa 1"><path class="cls-1" d="M1.4,111.84H13"/><path class="cls-1" d="M19.76,111.84H31.38"/><path class="cls-1" d="M38.11,111.84H49.74"/><path class="cls-1" d="M56.47,111.84H68.1"/><path class="cls-1" d="M74.83,111.84H86.45"/><path class="cls-1" d="M93.18,111.84h11.63"/><path class="cls-1" d="M111.54,111.84h11.62"/><path class="cls-1" d="M129.89,111.84h11.63"/><path class="cls-1" d="M148.25,111.84h11.63"/><path class="cls-1" d="M166.61,111.84h11.62"/><path class="cls-1" d="M185,111.84h11.63"/><path class="cls-1" d="M203.32,111.84h11.62"/><path class="cls-2" d="M101.87,62.89v15a12.25,12.25,0,0,0-10.4-5.51,13.14,13.14,0,0,0-9.67,4A14.13,14.13,0,0,0,81.86,96a12.55,12.55,0,0,0,9.49,4.1,14.29,14.29,0,0,0,5.87-1.28,15.8,15.8,0,0,0,4.71-3.92v4.53h3.37V62.89ZM13.15,72.07A10.32,10.32,0,0,0,7.76,73.6a12.84,12.84,0,0,0-3.61,3.73V72.74H.79V99.42H4.15V88.1a22.44,22.44,0,0,1,1-7.47,8.68,8.68,0,0,1,3-3.85,7.66,7.66,0,0,1,4.35-1.41,6.37,6.37,0,0,1,3.54,1,5.62,5.62,0,0,1,2.09,2.76,26.48,26.48,0,0,1,.55,6.6V99.42H22V89q0-5.79.92-8.26a8.65,8.65,0,0,1,3-3.92,7.34,7.34,0,0,1,4.46-1.47,5.82,5.82,0,0,1,3.43,1,5.35,5.35,0,0,1,2.08,2.57,18.71,18.71,0,0,1,.61,5.94V99.42H40V84.92a21.53,21.53,0,0,0-1-7.53A8.26,8.26,0,0,0,31,72.07a10.28,10.28,0,0,0-5.39,1.65,13.46,13.46,0,0,0-4.22,4.77,11.54,11.54,0,0,0-1.84-3.61,7.44,7.44,0,0,0-2.81-2,8.27,8.27,0,0,0-3.67-.79Zm46.07,0a12.2,12.2,0,0,0-9.79,4.47,14.45,14.45,0,0,0,.13,19.39,12.29,12.29,0,0,0,9.6,4.16,12.22,12.22,0,0,0,9.61-4.22,14.08,14.08,0,0,0,3.73-9.73A14.31,14.31,0,0,0,69,76.47,12.53,12.53,0,0,0,59.16,72Zm65.78,0a12.44,12.44,0,0,0-10.34,5,14.39,14.39,0,0,0-3,9,14.7,14.7,0,0,0,3.61,9.67,12.21,12.21,0,0,0,9.91,4.28,13.12,13.12,0,0,0,9.18-3.55,13.89,13.89,0,0,0,3.18-4.46l-2.75-1.53a14,14,0,0,1-2.88,3.79,10.78,10.78,0,0,1-7,2.57A9.08,9.08,0,0,1,118,94a11,11,0,0,1-2.93-7.64h23.37a14.51,14.51,0,0,0-2.88-9.18A12.72,12.72,0,0,0,125,72.07Zm28.63,0a6.83,6.83,0,0,0-3.67,1.1,12.23,12.23,0,0,0-3.42,3.49v-4H143V99.36h3.55V90.42c0-4.65.24-7.77.67-9.23a9.38,9.38,0,0,1,2.45-4.41,5,5,0,0,1,3.42-1.41,4.68,4.68,0,0,1,1.84.49l1.84-2.93a6.61,6.61,0,0,0-3.13-.92Zm20.2,0a10.91,10.91,0,0,0-5.39,1.34,14.11,14.11,0,0,0-4.46,4.1V72.68h-3.37V99.36H164V89.57a37.34,37.34,0,0,1,.49-7.28,9.7,9.7,0,0,1,3.18-5.08,8.22,8.22,0,0,1,5.5-2.08,6.57,6.57,0,0,1,4.29,1.34,6.78,6.78,0,0,1,2.26,4,26.55,26.55,0,0,1,.43,6.18V99.36h3.36V85.71c0-3.67-.36-6.36-1.1-8.07A9.1,9.1,0,0,0,173.83,72Zm28.75,0a12.4,12.4,0,0,0-9.3,4A13.79,13.79,0,0,0,189.37,86a14.09,14.09,0,0,0,3.85,10,12.61,12.61,0,0,0,17.81.84,12.48,12.48,0,0,0,1.77-2v4.65h3.31V72.68h-3.25v4.9a12.82,12.82,0,0,0-4.52-4.23,11.72,11.72,0,0,0-5.63-1.28ZM125,75.31a9.73,9.73,0,0,1,4.4,1A8.33,8.33,0,0,1,132.83,79a13,13,0,0,1,2,4.35h-19.4a11.92,11.92,0,0,1,3.06-5.51A9.49,9.49,0,0,1,125,75.37Zm77.89,0a9.71,9.71,0,0,1,7.28,3.12,11.07,11.07,0,0,1,2.88,7.77,12,12,0,0,1-1.23,5.45,10.1,10.1,0,0,1-14,3.85,11.31,11.31,0,0,1-3.73-14.74,9.93,9.93,0,0,1,8.81-5.39ZM59.1,75.43a9.44,9.44,0,0,1,7.1,3.12,11.39,11.39,0,0,1,1.65,13,9.81,9.81,0,0,1-17.38,0,11.39,11.39,0,0,1-1.34-5.39,10.92,10.92,0,0,1,2.93-7.65,9.35,9.35,0,0,1,7.1-3.12Zm32.55.19A10.4,10.4,0,0,1,102.06,86c0,.11,0,.21,0,.32a11,11,0,0,1-1.34,5.44A10.82,10.82,0,0,1,91.59,97a10.4,10.4,0,0,1-9-5.38,10.86,10.86,0,0,1,0-10.65A10.2,10.2,0,0,1,91.65,75.62Zm129.41-.8h.49c.25,0,.43,0,.49-.12s.19-.12.19-.25l-.13-.18c0-.12,0-.12-.12-.18h-.92Zm-.36,1.41V73.78h1.46a.62.62,0,0,1,.37.31l.12.3a.9.9,0,0,1-.18.49,1.26,1.26,0,0,1-.61.25l.24.12.37.49.31.49h-.49l-.19-.43-.42-.61h-.56v1Zm1-3.24a1.39,1.39,0,0,0-.92.3,1.23,1.23,0,0,0-.68.68,1.85,1.85,0,0,0,0,2,1.26,1.26,0,0,0,.68.68,1.39,1.39,0,0,0,.92.3,1.44,1.44,0,0,0,1-.3,1.34,1.34,0,0,0,.74-.68,2.57,2.57,0,0,0,.24-1,3.27,3.27,0,0,0-.24-1,1.8,1.8,0,0,0-.74-.68A1.44,1.44,0,0,0,221.68,73Zm0-.31a2.43,2.43,0,0,1,1.16.25,2.24,2.24,0,0,1,.85.85A2,2,0,0,1,224,75a1.87,1.87,0,0,1-.31,1.1,2.31,2.31,0,0,1-.85.85,2.4,2.4,0,0,1-1.16.31,2.45,2.45,0,0,1-1.11-.31,2.31,2.31,0,0,1-.85-.85,2.34,2.34,0,0,1,0-2.33,2.76,2.76,0,0,1,.85-.85A2.53,2.53,0,0,1,221.68,72.68Z"/><rect class="cls-3" x="0.39" width="224" height="123.36"/></g></g></svg>