<svg xmlns="http://www.w3.org/2000/svg" viewBox="0 0 214.6 123.36"><defs><style>.cls-1{fill:#e5e4f5;}.cls-2{fill:#f0f0f9;}.cls-3{fill:none;}</style></defs><g id="Capa_2" data-name="Capa 2"><g id="Capa_1-2" data-name="Capa 1"><g id="g122"><polygon id="polygon108" class="cls-1" points="41.03 99.07 41.03 95.02 41.03 68.79 41.03 64.73 32.26 64.73 32.26 68.79 32.26 95.02 32.26 99.07 41.03 99.07"/><path id="path110" class="cls-1" d="M117.72,82c0,5.59-1.53,10-4.5,13.16s-7.24,4.72-12.61,4.72S91,98.31,88,95.12s-4.5-7.57-4.5-13.16S85,71.87,88,68.68,95.23,64,100.72,64s9.65,1.53,12.72,4.71c2.86,3.08,4.28,7.57,4.28,13.28m-8.34,0c0-3.62-.76-6.47-2.3-8.56a7.68,7.68,0,0,0-6.47-3.18,7.55,7.55,0,0,0-6.48,3.18q-2.3,3.13-2.3,8.56a14.44,14.44,0,0,0,2.3,8.56,8.18,8.18,0,0,0,13,0,14.6,14.6,0,0,0,2.3-8.56"/><polygon id="polygon112" class="cls-2" points="136.7 89.42 144.82 64.73 153.6 64.73 141.86 99.07 131.66 99.07 119.92 64.73 128.69 64.73 136.7 89.42"/><path id="path114" class="cls-1" d="M.77,98.53V91.72A34.24,34.24,0,0,0,11,93.48c4.17,0,6.15-1.1,6.15-3.29a3,3,0,0,0-.88-2.09,19.3,19.3,0,0,0-4.72-2.41C7,83.82,4.06,82.18,2.63,80.86A8.94,8.94,0,0,1,0,74.28a8.8,8.8,0,0,1,4-7.79C6.47,64.73,9.87,63.86,14,63.86a53.48,53.48,0,0,1,10.21,1.2v6A37,37,0,0,0,15,69.67c-3.84,0-5.81,1.1-5.81,3.18a2.45,2.45,0,0,0,1.2,2,49.36,49.36,0,0,0,5.38,2.63c4.17,1.87,7,3.51,8.45,4.83a8.6,8.6,0,0,1,2.52,6.36,9.55,9.55,0,0,1-4.83,8.56c-2.63,1.64-6,2.41-10.2,2.41A40.82,40.82,0,0,1,.77,98.53Z"/><polygon id="polygon116" class="cls-1" points="47.62 99.07 47.62 64.73 58.59 64.73 70.77 87.66 70.77 64.73 77.57 64.73 77.57 99.07 67.25 99.07 54.42 75.7 54.42 99.07 47.62 99.07"/><polygon id="polygon118" class="cls-2" points="167.42 74.39 159.41 99.07 150.64 99.07 162.38 64.73 172.58 64.73 184.32 99.07 175.54 99.07 167.42 74.39"/><path id="path120" class="cls-2" d="M214.27,92.38A37.91,37.91,0,0,1,206,93.59a11.63,11.63,0,0,1-8.56-3.18c-2.19-2.09-3.18-4.94-3.18-8.45a11.72,11.72,0,0,1,3.18-8.45,10.93,10.93,0,0,1,8.34-3.29,27.62,27.62,0,0,1,8.56,1.54V65.5a19.1,19.1,0,0,0-3.4-.88,29.23,29.23,0,0,0-5.6-.54q-8.88,0-14.15,4.93C187.72,72.3,186,76.69,186,82.29s1.76,9.87,5.27,12.94S199.46,100,205.6,100a26.9,26.9,0,0,0,5.27-.44,37.81,37.81,0,0,0,3.73-.77V92.38Z"/></g><rect class="cls-3" x="0.3" width="214" height="123.36"/></g></g></svg>