<svg xmlns="http://www.w3.org/2000/svg" viewBox="0 0 341.5 123.36"><defs><style>.cls-1{fill:#e7ebfc;}.cls-2{fill:#dde2fa;}.cls-3{fill:none;}</style></defs><g id="Capa_2" data-name="Capa 2"><g id="Capa_1-2" data-name="Capa 1"><g id="g8141"><g id="path7971"><path class="cls-1" d="M282.84,62.27c-2.35-1.4-4-2.51-3.85-3.59.17-1.32,3.61-4,6.86-7.24.87-.86,2.23-2.22,3.8-3.81a4.47,4.47,0,0,1,.45-3.92c.91-1.19,2.54-1.7,5-1.54,2.92-3,5.58-5.63,6.51-6.59,2.07-2.11,4.35-4.3,5.27-4.17s1.22.88,1.5,2.93c.25,1.8.9,7,1.16,10.52,3.24.81,6.3,1.69,9.05,2.54-.33-23.91-3.08-29-8-29.67-4.64-.61-11.62,5.28-27.22,24.36-2.88,3.51-9.67,12.07-10.18,16-.37,2.78,2.56,4,4.23,4.82s19.66,9.83,28.08,14.51c.71-.48,1.44-1,2.17-1.41-5-2.68-19.08-10.3-24.8-13.72"/></g><g id="path7975"><path class="cls-1" d="M329.53,52.12c-5.5-1.91-19.1-7-33.46-8.87-4.93-.65-6.92,1.1-4.89,5.81s7.21,12.43,12.65,18.26,11.35,7.4,13.23-1.59c.07-.32.13-.64.19-1a61.13,61.13,0,0,0,1-6.51c-2.41-1.09-5.12-2.26-7.82-3.41.15,2.07.39,5.63.52,8.36,0,.36,0,.7,0,1,.16,4.45-1.35,4.43-3.87,2.62-2.95-2.11-12-14-13-19.25,0-.35.12-.36.3-.31l.22.09h0c2,.8,8.8,3.47,15.68,6.37,2.74,1.15,5.5,2.34,8,3.46s4.61,2.14,6.23,3c3,1.59,4.13,2.67,2.88,3.94-6.19,6.29-27.79,15.22-35.25,26.26l-.07.11a3.73,3.73,0,0,0-.25.39l-.06.13a9.69,9.69,0,0,0-1.08,3.27c-.32,2.42.94,4.62,4.4,5.56a15.23,15.23,0,0,0,2.94.55l.62,0c6.66.32,23.94-3.47,29.2-5.81,5.44-2.41,3.81-4.81,2.24-6.06-1.18-.94-7.23-4.32-10.17-5.94l-2.17,1.4a82.39,82.39,0,0,1,8.13,5.46c.45.35.21.77-.46.81l-.53,0c-4.75.33-13.73,1-17.95,1.19l-1.7.08A27.8,27.8,0,0,1,308,89.38c9-6.34,24.06-15.26,28.5-19.1,3.26-2.82,12.17-11.47-7-18.16"/></g><path id="path7979" class="cls-2" d="M27.34,99.45h5.14L19.12,62.75H14l-14,36.7h5.2L9.35,88.2h14ZM10.91,84.08l5.61-15.24,5.36,15.24h-11"/><path id="path7983" class="cls-2" d="M43.68,86.78c-4.78-1-9.7-2.16-9.7-7.92,0-5,4.27-8.23,10.73-8.23,4.17,0,8.16,1.55,10.15,5.35l-4.34,1.81c-.35-1-2.6-3.57-6.35-3.57s-5.51,2.17-5.51,4c0,2.64,3.49,3.75,6.47,4.34,6.17,1.25,11.54,2.83,11.54,8.64,0,4.52-4,8.76-11.68,8.76-5.65,0-9.66-1.88-11.59-5.82l5-.87c1.24,2.16,3.49,3.1,6.84,3.1,4.15,0,6.58-1.58,6.58-4.58,0-3.17-4-4.17-8.09-5.06"/><path id="path7987" class="cls-2" d="M67,71.47H72v3.9H67V91.25c0,3.29,0,4.7,2,4.7A12.2,12.2,0,0,0,72,95.31v3.86a31.43,31.43,0,0,1-4.54.47c-5.43,0-5.43-2.63-5.37-6.27v-18H57.69v-3.9h4.42V64.8l4.84-2v8.68"/><path id="path7991" class="cls-2" d="M80.93,71.54v5c2.65-5.28,7.66-5.39,9.55-5.45v4.83c-4.6,0-6.85,1-8.38,3.45-1.24,2-1.17,4.85-1.17,7.25V99.45H76.24V71.54h4.69"/><path id="path7995" class="cls-2" d="M144.61,62.75v4.58L123.84,95.05h21.29v4.4h-27V94.68L139,67.28H118.19V62.75h26.42"/><path id="path7999" class="cls-2" d="M179.17,71.73v4.06a9.79,9.79,0,0,1,8.7-5c3.55,0,7.81,1.78,9.17,6.38a20.72,20.72,0,0,1,.47,5.71V99.45h-4.67V83.67c0-2.82,0-3.64-.29-4.59-.84-2.64-3.44-3.82-6-3.82a7.22,7.22,0,0,0-5.33,2.12c-2.07,2.06-2.07,4.17-2.07,6.24V99.45h-4.69V71.73h4.69"/><path id="path8003" class="cls-2" d="M251.37,94.51c-1.75,2.74-4.93,5.5-10.64,5.5-9.87,0-13.59-7.6-13.59-14.42,0-7.89,4.29-15,13.18-15,3.49,0,8.36,1,11.06,5.55L247,77.93A6.58,6.58,0,0,0,240.49,74c-7.69,0-8.14,8.77-8.14,11.25,0,9.19,5.28,11.18,8.44,11.18,3.61,0,5.46-1.73,6.43-3.65l4.15,1.74"/><path id="path8007" class="cls-2" d="M170.51,94.15c-1.59,2.72-4.67,5.83-10.75,5.83-8.24,0-13-5.59-13-15,0-10.48,6.92-14.49,12.8-14.49,5.12,0,10,2.83,11.68,9.83a25.2,25.2,0,0,1,.53,5.66h-20c-.12,4.67,1.84,10.56,8.43,10.45A6.62,6.62,0,0,0,166,93.27ZM151.86,82.64h14.8c-.41-7.3-4.62-8.54-7.43-8.54-4,0-6.84,3-7.37,8.54"/><path id="path8011" class="cls-2" d="M223.75,94.15C222.16,96.87,219.08,100,213,100c-8.24,0-13-5.59-13-15,0-10.48,6.92-14.49,12.8-14.49,5.12,0,10,2.83,11.68,9.83A25.2,25.2,0,0,1,225,86H205c-.12,4.67,1.84,10.56,8.43,10.45a6.62,6.62,0,0,0,5.79-3.18ZM205.1,82.64h14.8c-.41-7.3-4.62-8.54-7.43-8.54-4,0-6.84,3-7.37,8.54"/><path id="path8015" class="cls-2" d="M270.56,91.79c.71-1.54.77-2.19.77-6.26-1.82.29-4.29.65-7.31,1.3-5.18,1.12-6.07,3.07-6.07,5,0,2.24,1.77,4.12,5.24,4.12C266.44,96,269.2,94.68,270.56,91.79Zm6.4,7.69-4.87,0a31.48,31.48,0,0,1-.55-4.12c-1.42,1.47-4,4.51-9.35,4.51s-9.44-3.21-9.44-7.93A7.55,7.55,0,0,1,254,87.77c1.59-2.36,4.55-4.25,12.86-4.89l4.42-.36v-.7c0-2.89,0-7.73-6.23-7.73-3.92,0-5.25,1.9-5.7,3.61L255,75.9a4.78,4.78,0,0,1,.23-.45c1.65-3.07,4.9-5,9.6-5,2.59,0,5.94.65,8.12,2.36,3.11,2.36,3,7,3,7l.19,14.31s.17,4.15.76,5.32"/><path id="path8019" class="cls-2" d="M108.46,91.79c.71-1.54.77-2.19.77-6.26-1.82.29-4.29.65-7.31,1.3-5.18,1.12-6.07,3.07-6.07,5,0,2.24,1.77,4.12,5.25,4.12C104.34,96,107.11,94.68,108.46,91.79Zm6.41,7.69-4.87,0a30.51,30.51,0,0,1-.56-4.12c-1.42,1.47-4,4.51-9.34,4.51S90.65,96.68,90.65,92a7.55,7.55,0,0,1,1.24-4.19c1.6-2.36,4.55-4.25,12.86-4.89l4.42-.36v-.7c0-2.89,0-7.73-6.23-7.73-3.91,0-5.24,1.9-5.7,3.61l-4.31-1.8c.07-.15.15-.3.23-.45,1.66-3.07,4.91-5,9.6-5,2.59,0,5.94.65,8.12,2.36,3.11,2.36,3,7,3,7l.18,14.31s.17,4.15.77,5.32"/></g><rect class="cls-3" width="341.5" height="123.36"/></g></g></svg>